<?xml version="1.0" encoding="UTF-8" standalone="no"?>
<svg width="24px" height="24px" viewBox="0 0 24 24" version="1.1" xmlns="http://www.w3.org/2000/svg" xmlns:xlink="http://www.w3.org/1999/xlink" xmlns:sketch="http://www.bohemiancoding.com/sketch/ns">
    <!-- Generator: Sketch 3.5.2 (25235) - http://www.bohemiancoding.com/sketch -->
    <title>github_copyrighted_filled</title>
    <desc>Created with Sketch.</desc>
    <defs></defs>
    <g id="Page-1" stroke="none" stroke-width="1" fill="none" fill-rule="evenodd" sketch:type="MSPage">
        <g id="iPhone-6" sketch:type="MSArtboardGroup" transform="translate(-382.000000, -308.000000)" fill="#FFFFFF">
            <path d="M394,308 C387.4005,308 382,313.4005 382,320 C382,325.0995 385.199,329.449 389.6505,331.199 C390.0995,331.0995 390.5,330.699 390.5,330.199 L390.5,328 L389.199,328 C388.25,328 387.449,327.551 387.051,326.8495 C386.949,326.6505 386.8495,326.4005 386.75,326.1505 C386.551,325.5995 386.301,325 385.801,324.6505 C385.5995,324.5 385.5,324.199 385.551,323.949 C385.6505,323.699 385.9005,323.5 386.3495,323.551 C386.8495,323.5995 387.5995,324.1505 388.051,324.75 C388.449,325.25 388.75,325.551 389.3495,325.551 L389.5,325.551 C389.949,325.551 391.051,325.551 391.25,325.3495 C391.4005,325.1505 391.5,325 391.6505,324.8495 C388.6505,324.25 386.949,322.5 386.949,319.8495 C386.949,318.949 387.199,318.051 387.75,317.25 C387.551,316.5 387.0995,314.551 388.051,313.699 L388.199,313.551 L388.4005,313.551 C389.699,313.551 390.6505,314.0995 391.25,314.551 C393,313.9005 395,313.9005 396.75,314.551 C397.301,314.0995 398.25,313.551 399.5995,313.551 L399.801,313.551 L399.949,313.699 C400.9005,314.5995 400.449,316.5 400.25,317.25 C400.75,318.051 401.051,318.949 401.051,319.8495 C401.051,322.5 399.3495,324.25 396.4005,324.8495 C397.1505,325.6505 397.551,326.8495 397.551,327.801 L397.551,330.25 C397.551,330.75 397.9005,331.1505 398.4005,331.25 C402.801,329.449 406,325.0995 406,320 C406,313.4005 400.5995,308 394,308 L394,308 Z" id="github_copyrighted_filled" sketch:type="MSShapeGroup"></path>
        </g>
    </g>
</svg>