<?xml version="1.0" encoding="UTF-8" standalone="no"?>
<svg width="379px" height="260px" viewBox="0 0 379 260" version="1.1" xmlns="http://www.w3.org/2000/svg" xmlns:xlink="http://www.w3.org/1999/xlink">
    <!-- Generator: Sketch 3.6.1 (26313) - http://www.bohemiancoding.com/sketch -->
    <title>Group 3</title>
    <desc>Created with Sketch.</desc>
    <defs></defs>
    <g id="Page-1" stroke="none" stroke-width="1" fill="none" fill-rule="evenodd">
        <g id="512W" transform="translate(-65.000000, -116.000000)">
            <g id="Group-3" transform="translate(65.000000, 116.000000)">
                <g id="Group" transform="translate(37.000000, 0.000000)">
                    <path d="M235.423263,131.866699 L171.631972,16.7841644 C165.838751,6.33291703 152.660279,2.54716014 142.204914,8.34266326 C131.747251,14.1394406 127.970343,27.3091325 133.763818,37.7608395 L214.495997,183.405546 C220.284213,193.847763 233.623933,197.939059 244.279348,192.522515 L244.30763,192.508138 C244.383225,192.46971 244.458483,192.430907 244.533401,192.391731 C248.20411,190.684027 251.43865,187.928276 253.744224,184.238586 L306.473489,99.8541221 C312.811788,89.7107233 309.728075,76.3584188 299.590353,70.0236667 C289.450401,63.6875218 276.09782,66.773802 269.761548,76.9139556 L235.423263,131.866699 Z" id="Rectangle-110-Copy-2" fill="#9E4FA2"></path>
                    <path d="M156.353627,185.491626 C161.897986,195.493914 174.496794,199.10478 184.496651,193.561768 L186.146189,192.647415 C196.141753,187.106783 199.758957,174.50428 194.21585,164.504252 L109.054953,10.8699258 C103.510593,0.86763691 90.9117852,-2.74322847 80.911928,2.79978289 L79.2623905,3.71413644 C69.266826,9.25476832 65.6496227,21.8572709 71.1927289,31.8572991 L156.353627,185.491626 L156.353627,185.491626 Z" id="Rectangle-126-Copy-2" fill="#DF3713"></path>
                    <path d="M97.456966,186.209022 C103.001324,196.211309 115.600305,199.822486 125.600162,194.279475 L127.2497,193.365121 C137.245264,187.824489 140.862391,175.221848 135.31919,165.221649 L72.3132166,51.5558642 C66.7688582,41.5535768 54.1698775,37.9424003 44.1700203,43.4854116 L42.5204828,44.3997652 C32.5249183,49.940397 28.9077919,62.5430383 34.4509929,72.5432376 L97.456966,186.209022 L97.456966,186.209022 Z" id="Rectangle-105-Copy-3" fill="#F09403"></path>
                    <path d="M38.405006,187.103918 C43.9516558,197.110339 56.5495851,200.719619 66.5494423,195.176607 L68.1989798,194.262254 C78.1945443,188.721622 81.8111155,176.117979 76.2672298,166.116545 L40.956963,102.415137 C35.4103132,92.4087159 22.8123839,88.7994361 12.8125267,94.3424475 L11.1629892,95.2568011 C1.16742472,100.797433 -2.44914653,113.401076 3.09473924,123.40251 L38.405006,187.103918 L38.405006,187.103918 Z" id="Rectangle-109-Copy-2" fill="#E9D600"></path>
                </g>
                <g id="Group-2" transform="translate(0.000000, 215.000000)" fill="#000000">
                    <path d="M0.637312826,0.446 L0.637312826,44 L9.29931283,44 L9.29931283,27.469 C9.29931283,24.2563173 9.82797421,21.948507 10.8853128,20.5455 C11.9426514,19.142493 13.6506344,18.441 16.0093128,18.441 C18.0833232,18.441 19.5269754,19.0814936 20.3403128,20.3625 C21.1536502,21.6435064 21.5603128,23.5853203 21.5603128,26.188 L21.5603128,44 L30.2223128,44 L30.2223128,24.602 C30.2223128,22.6499902 30.0494812,20.8708414 29.7038128,19.2645 C29.3581444,17.6581586 28.7583171,16.2958389 27.9043128,15.1775 C27.0503086,14.0591611 25.8811536,13.1848365 24.3968128,12.5545 C22.9124721,11.9241635 21.0113244,11.609 18.6933128,11.609 C17.066638,11.609 15.3993214,12.0258292 13.6913128,12.8595 C11.9833043,13.6931708 10.5803183,15.0249908 9.48231283,16.855 L9.29931283,16.855 L9.29931283,0.446 L0.637312826,0.446 Z M35.6025129,22.162 C35.7245135,20.1286565 36.2328417,18.4410067 37.1275129,17.099 C38.022184,15.7569933 39.1608393,14.6793374 40.5435129,13.866 C41.9261864,13.0526626 43.4816709,12.4731684 45.2100129,12.1275 C46.9383548,11.7818316 48.6768374,11.609 50.4255129,11.609 C52.0115208,11.609 53.6178381,11.7208322 55.2445129,11.9445 C56.8711877,12.1681678 58.3555061,12.6053301 59.6975129,13.256 C61.0395196,13.9066699 62.1375086,14.8114942 62.9915129,15.9705 C63.8455171,17.1295058 64.2725129,18.6646571 64.2725129,20.576 L64.2725129,36.985 C64.2725129,38.4083404 64.3538454,39.7706602 64.5165129,41.072 C64.6791803,42.3733398 64.9638442,43.3493301 65.3705129,44 L56.5865129,44 C56.4238454,43.5119976 56.29168,43.0138359 56.1900129,42.5055 C56.0883457,41.9971641 56.0171797,41.4786693 55.9765129,40.95 C54.5938393,42.3733404 52.9671889,43.3696638 51.0965129,43.939 C49.2258368,44.5083362 47.3145226,44.793 45.3625129,44.793 C43.8578387,44.793 42.4548527,44.6100018 41.1535129,44.244 C39.852173,43.8779982 38.7135177,43.3086705 37.7375129,42.536 C36.761508,41.7633295 35.9990156,40.7873392 35.4500129,39.608 C34.9010101,38.4286608 34.6265129,37.0256748 34.6265129,35.399 C34.6265129,33.6096577 34.9416764,32.1355058 35.5720129,30.9765 C36.2023493,29.8174942 37.0156745,28.8923368 38.0120129,28.201 C39.0083512,27.5096632 40.1470064,26.9911684 41.4280129,26.6455 C42.7090193,26.2998316 44.000173,26.0253343 45.3015129,25.822 C46.6028527,25.6186656 47.8838399,25.4560006 49.1445129,25.334 C50.4051858,25.2119994 51.523508,25.0290012 52.4995129,24.785 C53.4755177,24.5409988 54.2481767,24.185169 54.8175129,23.7175 C55.386849,23.249831 55.6511797,22.5686711 55.6105129,21.674 C55.6105129,20.738662 55.4580144,19.9965027 55.1530129,19.4475 C54.8480113,18.8984973 54.4413487,18.4715015 53.9330129,18.1665 C53.424677,17.8614985 52.8350162,17.6581672 52.1640129,17.5565 C51.4930095,17.4548328 50.7711834,17.404 49.9985129,17.404 C48.2905043,17.404 46.9485177,17.7699963 45.9725129,18.502 C44.996508,19.2340037 44.4271803,20.4539915 44.2645129,22.162 L35.6025129,22.162 Z M55.6105129,28.567 C55.244511,28.892335 54.7870156,29.1464991 54.2380129,29.3295 C53.6890101,29.5125009 53.0993493,29.6649994 52.4690129,29.787 C51.8386764,29.9090006 51.1778496,30.0106663 50.4865129,30.092 C49.7951761,30.1733337 49.1038496,30.2749994 48.4125129,30.397 C47.7618429,30.5190006 47.1213493,30.6816656 46.4910129,30.885 C45.8606764,31.0883343 45.3116819,31.3628316 44.8440129,31.7085 C44.3763438,32.0541684 44.0001809,32.4913307 43.7155129,33.02 C43.4308448,33.5486693 43.2885129,34.2196626 43.2885129,35.033 C43.2885129,35.8056705 43.4308448,36.4563307 43.7155129,36.985 C44.0001809,37.5136693 44.3865104,37.9304985 44.8745129,38.2355 C45.3625153,38.5405015 45.9318429,38.7539994 46.5825129,38.876 C47.2331828,38.9980006 47.9041761,39.059 48.5955129,39.059 C50.3035214,39.059 51.6251748,38.7743362 52.5605129,38.205 C53.4958509,37.6356638 54.1871773,36.954504 54.6345129,36.1615 C55.0818484,35.368496 55.3563457,34.5653374 55.4580129,33.752 C55.55968,32.9386626 55.6105129,32.2880024 55.6105129,31.8 L55.6105129,28.567 Z M70.1407129,12.463 L70.1407129,44 L78.8027129,44 L78.8027129,27.469 C78.8027129,24.2563173 79.3313743,21.948507 80.3887129,20.5455 C81.4460515,19.142493 83.1540344,18.441 85.5127129,18.441 C87.5867232,18.441 89.0303755,19.0814936 89.8437129,20.3625 C90.6570503,21.6435064 91.0637129,23.5853203 91.0637129,26.188 L91.0637129,44 L99.7257129,44 L99.7257129,24.602 C99.7257129,22.6499902 99.5528813,20.8708414 99.2072129,19.2645 C98.8615445,17.6581586 98.2617171,16.2958389 97.4077129,15.1775 C96.5537086,14.0591611 95.3845536,13.1848365 93.9002129,12.5545 C92.4158721,11.9241635 90.5147245,11.609 88.1967129,11.609 C86.3667037,11.609 84.5773883,12.0258292 82.8287129,12.8595 C81.0800375,13.6931708 79.6567184,15.0249908 78.5587129,16.855 L78.3757129,16.855 L78.3757129,12.463 L70.1407129,12.463 Z M127.858913,28.14 C127.858913,29.4413398 127.736914,30.7019939 127.492913,31.922 C127.248912,33.1420061 126.842249,34.2298286 126.272913,35.1855 C125.703577,36.1411714 124.941084,36.9036638 123.985413,37.473 C123.029741,38.0423362 121.840253,38.327 120.416913,38.327 C119.074906,38.327 117.926084,38.0321696 116.970413,37.4425 C116.014741,36.8528304 115.221749,36.0801714 114.591413,35.1245 C113.961076,34.1688286 113.503581,33.0810061 113.218913,31.861 C112.934245,30.6409939 112.791913,29.4210061 112.791913,28.201 C112.791913,26.8996602 112.924078,25.6491727 113.188413,24.4495 C113.452748,23.2498273 113.879743,22.182338 114.469413,21.247 C115.059083,20.311662 115.841908,19.5593362 116.817913,18.99 C117.793918,18.4206638 118.993572,18.136 120.416913,18.136 C121.840253,18.136 123.019575,18.4206638 123.954913,18.99 C124.890251,19.5593362 125.652743,20.3014954 126.242413,21.2165 C126.832083,22.1315046 127.248912,23.1888273 127.492913,24.3885 C127.736914,25.5881727 127.858913,26.8386602 127.858913,28.14 L127.858913,28.14 Z M127.980913,39.974 L127.980913,44 L136.215913,44 L136.215913,0.446 L127.553913,0.446 L127.553913,16.306 L127.431913,16.306 C126.455908,14.7606589 125.124088,13.591504 123.436413,12.7985 C121.748738,12.005496 119.969589,11.609 118.098913,11.609 C115.780901,11.609 113.747588,12.0664954 111.998913,12.9815 C110.250237,13.8965046 108.796419,15.1063258 107.637413,16.611 C106.478407,18.1156742 105.604083,19.8541568 105.014413,21.8265 C104.424743,23.7988432 104.129913,25.8423228 104.129913,27.957 C104.129913,30.153011 104.424743,32.2676565 105.014413,34.301 C105.604083,36.3343435 106.478407,38.1338255 107.637413,39.6995 C108.796419,41.2651745 110.270571,42.5054954 112.059913,43.4205 C113.849255,44.3355046 115.923234,44.793 118.281913,44.793 C120.355923,44.793 122.216405,44.4168371 123.863413,43.6645 C125.510421,42.9121629 126.842241,41.6820085 127.858913,39.974 L127.980913,39.974 Z M194.095468,44 L204.038468,12.463 L195.132468,12.463 L189.337468,33.813 L189.215468,33.813 L183.847468,12.463 L175.429468,12.463 L170.183468,33.874 L170.061468,33.874 L164.266468,12.463 L155.116468,12.463 L165.120468,44 L174.087468,44 L179.455468,22.833 L179.577468,22.833 L185.189468,44 L194.095468,44 Z M206.870245,0.446 L206.870245,44 L215.532245,44 L215.532245,27.469 C215.532245,24.2563173 216.060907,21.948507 217.118245,20.5455 C218.175584,19.142493 219.883567,18.441 222.242245,18.441 C224.316256,18.441 225.759908,19.0814936 226.573245,20.3625 C227.386583,21.6435064 227.793245,23.5853203 227.793245,26.188 L227.793245,44 L236.455245,44 L236.455245,24.602 C236.455245,22.6499902 236.282414,20.8708414 235.936745,19.2645 C235.591077,17.6581586 234.991249,16.2958389 234.137245,15.1775 C233.283241,14.0591611 232.114086,13.1848365 230.629745,12.5545 C229.145404,11.9241635 227.244257,11.609 224.926245,11.609 C223.29957,11.609 221.632254,12.0258292 219.924245,12.8595 C218.216237,13.6931708 216.813251,15.0249908 215.715245,16.855 L215.532245,16.855 L215.532245,0.446 L206.870245,0.446 Z M251.121023,7.583 L251.121023,0.446 L242.459023,0.446 L242.459023,7.583 L251.121023,7.583 Z M242.459023,12.463 L242.459023,44 L251.121023,44 L251.121023,12.463 L242.459023,12.463 Z M268.1048,12.463 L268.1048,3.008 L259.4428,3.008 L259.4428,12.463 L254.1968,12.463 L254.1968,18.258 L259.4428,18.258 L259.4428,36.863 C259.4428,38.4490079 259.707131,39.7299951 260.2358,40.706 C260.764469,41.6820049 261.486295,42.4343307 262.4013,42.963 C263.316305,43.4916693 264.373627,43.8474991 265.5733,44.0305 C266.772973,44.2135009 268.043793,44.305 269.3858,44.305 C270.239804,44.305 271.114129,44.2846669 272.0088,44.244 C272.903471,44.2033331 273.716796,44.1220006 274.4488,44 L274.4488,37.29 C274.042131,37.3713337 273.615136,37.4323331 273.1678,37.473 C272.720464,37.5136669 272.252802,37.534 271.7648,37.534 C270.300793,37.534 269.324802,37.2900024 268.8368,36.802 C268.348798,36.3139976 268.1048,35.3380073 268.1048,33.874 L268.1048,18.258 L274.4488,18.258 L274.4488,12.463 L268.1048,12.463 Z M288.748577,12.463 L288.748577,3.008 L280.086577,3.008 L280.086577,12.463 L274.840577,12.463 L274.840577,18.258 L280.086577,18.258 L280.086577,36.863 C280.086577,38.4490079 280.350908,39.7299951 280.879577,40.706 C281.408247,41.6820049 282.130073,42.4343307 283.045077,42.963 C283.960082,43.4916693 285.017405,43.8474991 286.217077,44.0305 C287.41675,44.2135009 288.687571,44.305 290.029577,44.305 C290.883582,44.305 291.757906,44.2846669 292.652577,44.244 C293.547249,44.2033331 294.360574,44.1220006 295.092577,44 L295.092577,37.29 C294.685909,37.3713337 294.258913,37.4323331 293.811577,37.473 C293.364242,37.5136669 292.89658,37.534 292.408577,37.534 C290.94457,37.534 289.96858,37.2900024 289.480577,36.802 C288.992575,36.3139976 288.748577,35.3380073 288.748577,33.874 L288.748577,18.258 L295.092577,18.258 L295.092577,12.463 L288.748577,12.463 Z M298.656355,0.446 L298.656355,44 L307.318355,44 L307.318355,0.446 L298.656355,0.446 Z M334.550132,24.846 L320.459132,24.846 C320.499799,24.2359969 320.631965,23.5446705 320.855632,22.772 C321.0793,21.9993295 321.46563,21.2673368 322.014632,20.576 C322.563635,19.8846632 323.295628,19.305169 324.210632,18.8375 C325.125637,18.369831 326.274459,18.136 327.657132,18.136 C329.77181,18.136 331.347627,18.7053276 332.384632,19.844 C333.421638,20.9826724 334.143464,22.649989 334.550132,24.846 L334.550132,24.846 Z M320.459132,30.336 L343.212132,30.336 C343.3748,27.8959878 343.171468,25.5576778 342.602132,23.321 C342.032796,21.0843221 341.107639,19.0916754 339.826632,17.343 C338.545626,15.5943246 336.908809,14.2015052 334.916132,13.1645 C332.923456,12.1274948 330.585146,11.609 327.901132,11.609 C325.501787,11.609 323.315976,12.0359957 321.343632,12.89 C319.371289,13.7440043 317.673473,14.9131592 316.250132,16.3975 C314.826792,17.8818408 313.728803,19.6406565 312.956132,21.674 C312.183462,23.7073435 311.797132,25.9033215 311.797132,28.262 C311.797132,30.7020122 312.173295,32.9386565 312.925632,34.972 C313.677969,37.0053435 314.745459,38.7539927 316.128132,40.218 C317.510806,41.6820073 319.198456,42.810496 321.191132,43.6035 C323.183809,44.396504 325.420453,44.793 327.901132,44.793 C331.479817,44.793 334.529786,43.9796748 337.051132,42.353 C339.572478,40.7263252 341.443126,38.0220189 342.663132,34.24 L335.038132,34.24 C334.753464,35.2160049 333.980805,36.1411623 332.720132,37.0155 C331.459459,37.8898377 329.954808,38.327 328.206132,38.327 C325.76612,38.327 323.895472,37.696673 322.594132,36.436 C321.292792,35.175327 320.581133,33.142014 320.459132,30.336 L320.459132,30.336 Z M369.89491,28.14 C369.89491,29.4413398 369.772911,30.7019939 369.52891,31.922 C369.284909,33.1420061 368.878246,34.2298286 368.30891,35.1855 C367.739574,36.1411714 366.977081,36.9036638 366.02141,37.473 C365.065738,38.0423362 363.87625,38.327 362.45291,38.327 C361.110903,38.327 359.962081,38.0321696 359.00641,37.4425 C358.050738,36.8528304 357.257746,36.0801714 356.62741,35.1245 C355.997073,34.1688286 355.539578,33.0810061 355.25491,31.861 C354.970242,30.6409939 354.82791,29.4210061 354.82791,28.201 C354.82791,26.8996602 354.960075,25.6491727 355.22441,24.4495 C355.488744,23.2498273 355.91574,22.182338 356.50541,21.247 C357.095079,20.311662 357.877905,19.5593362 358.85391,18.99 C359.829915,18.4206638 361.029569,18.136 362.45291,18.136 C363.87625,18.136 365.055572,18.4206638 365.99091,18.99 C366.926248,19.5593362 367.68874,20.3014954 368.27841,21.2165 C368.868079,22.1315046 369.284909,23.1888273 369.52891,24.3885 C369.772911,25.5881727 369.89491,26.8386602 369.89491,28.14 L369.89491,28.14 Z M370.01691,39.974 L370.01691,44 L378.25191,44 L378.25191,0.446 L369.58991,0.446 L369.58991,16.306 L369.46791,16.306 C368.491905,14.7606589 367.160085,13.591504 365.47241,12.7985 C363.784735,12.005496 362.005586,11.609 360.13491,11.609 C357.816898,11.609 355.783585,12.0664954 354.03491,12.9815 C352.286234,13.8965046 350.832416,15.1063258 349.67341,16.611 C348.514404,18.1156742 347.640079,19.8541568 347.05041,21.8265 C346.46074,23.7988432 346.16591,25.8423228 346.16591,27.957 C346.16591,30.153011 346.46074,32.2676565 347.05041,34.301 C347.640079,36.3343435 348.514404,38.1338255 349.67341,39.6995 C350.832416,41.2651745 352.306567,42.5054954 354.09591,43.4205 C355.885252,44.3355046 357.959231,44.793 360.31791,44.793 C362.39192,44.793 364.252402,44.4168371 365.89941,43.6645 C367.546418,42.9121629 368.878238,41.6820085 369.89491,39.974 L370.01691,39.974 Z" id="hand-whittled"></path>
                    <rect id="Rectangle-53" x="274.450012" y="12.4599915" width="0.5" height="5.80000019"></rect>
                </g>
            </g>
        </g>
    </g>
</svg>