<?xml version="1.0" encoding="UTF-8" standalone="no"?>
<svg width="374px" height="260px" viewBox="0 0 374 260" version="1.1" xmlns="http://www.w3.org/2000/svg" xmlns:xlink="http://www.w3.org/1999/xlink">
    <!-- Generator: Sketch 3.6.1 (26313) - http://www.bohemiancoding.com/sketch -->
    <title>Group 3</title>
    <desc>Created with Sketch.</desc>
    <defs></defs>
    <g id="Page-1" stroke="none" stroke-width="1" fill="none" fill-rule="evenodd">
        <g id="512W" transform="translate(-68.000000, -116.000000)">
            <g id="Group-3" transform="translate(68.000000, 116.000000)">
                <g id="Group" transform="translate(33.000000, 0.000000)">
                    <path d="M235.423263,131.866699 L171.631972,16.7841644 C165.838751,6.33291703 152.660279,2.54716014 142.204914,8.34266326 C131.747251,14.1394406 127.970343,27.3091325 133.763818,37.7608395 L214.495997,183.405546 C220.284213,193.847763 233.623933,197.939059 244.279348,192.522515 L244.30763,192.508138 C244.383225,192.46971 244.458483,192.430907 244.533401,192.391731 C248.20411,190.684027 251.43865,187.928276 253.744224,184.238586 L306.473489,99.8541221 C312.811788,89.7107233 309.728075,76.3584188 299.590353,70.0236667 C289.450401,63.6875218 276.09782,66.773802 269.761548,76.9139556 L235.423263,131.866699 Z" id="Rectangle-110-Copy-2" fill="#9E4FA2"></path>
                    <path d="M156.353627,185.491626 C161.897986,195.493914 174.496794,199.10478 184.496651,193.561768 L186.146189,192.647415 C196.141753,187.106783 199.758957,174.50428 194.21585,164.504252 L109.054953,10.8699258 C103.510593,0.86763691 90.9117852,-2.74322847 80.911928,2.79978289 L79.2623905,3.71413644 C69.266826,9.25476832 65.6496227,21.8572709 71.1927289,31.8572991 L156.353627,185.491626 L156.353627,185.491626 Z" id="Rectangle-126-Copy-2" fill="#DF3713"></path>
                    <path d="M97.456966,186.209022 C103.001324,196.211309 115.600305,199.822486 125.600162,194.279475 L127.2497,193.365121 C137.245264,187.824489 140.862391,175.221848 135.31919,165.221649 L72.3132166,51.5558642 C66.7688582,41.5535768 54.1698775,37.9424003 44.1700203,43.4854116 L42.5204828,44.3997652 C32.5249183,49.940397 28.9077919,62.5430383 34.4509929,72.5432376 L97.456966,186.209022 L97.456966,186.209022 Z" id="Rectangle-105-Copy-3" fill="#F09403"></path>
                    <path d="M38.405006,187.103918 C43.9516558,197.110339 56.5495851,200.719619 66.5494423,195.176607 L68.1989798,194.262254 C78.1945443,188.721622 81.8111155,176.117979 76.2672298,166.116545 L40.956963,102.415137 C35.4103132,92.4087159 22.8123839,88.7994361 12.8125267,94.3424475 L11.1629892,95.2568011 C1.16742472,100.797433 -2.44914653,113.401076 3.09473924,123.40251 L38.405006,187.103918 L38.405006,187.103918 Z" id="Rectangle-109-Copy-2" fill="#E9D600"></path>
                </g>
                <g id="Group-2" transform="translate(0.000000, 215.000000)" fill="#000000">
                    <path d="M0.657312826,0.446 L0.657312826,44 L9.31931283,44 L9.31931283,27.469 C9.31931283,24.2563173 9.84797421,21.948507 10.9053128,20.5455 C11.9626514,19.142493 13.6706344,18.441 16.0293128,18.441 C18.1033232,18.441 19.5469754,19.0814936 20.3603128,20.3625 C21.1736502,21.6435064 21.5803128,23.5853203 21.5803128,26.188 L21.5803128,44 L30.2423128,44 L30.2423128,24.602 C30.2423128,22.6499902 30.0694812,20.8708414 29.7238128,19.2645 C29.3781444,17.6581586 28.7783171,16.2958389 27.9243128,15.1775 C27.0703086,14.0591611 25.9011536,13.1848365 24.4168128,12.5545 C22.9324721,11.9241635 21.0313244,11.609 18.7133128,11.609 C17.086638,11.609 15.4193214,12.0258292 13.7113128,12.8595 C12.0033043,13.6931708 10.6003183,15.0249908 9.50231283,16.855 L9.31931283,16.855 L9.31931283,0.446 L0.657312826,0.446 Z M34.7825129,22.162 C34.9045135,20.1286565 35.4128417,18.4410067 36.3075129,17.099 C37.202184,15.7569933 38.3408393,14.6793374 39.7235129,13.866 C41.1061864,13.0526626 42.6616709,12.4731684 44.3900129,12.1275 C46.1183548,11.7818316 47.8568374,11.609 49.6055129,11.609 C51.1915208,11.609 52.7978381,11.7208322 54.4245129,11.9445 C56.0511877,12.1681678 57.5355061,12.6053301 58.8775129,13.256 C60.2195196,13.9066699 61.3175086,14.8114942 62.1715129,15.9705 C63.0255171,17.1295058 63.4525129,18.6646571 63.4525129,20.576 L63.4525129,36.985 C63.4525129,38.4083404 63.5338454,39.7706602 63.6965129,41.072 C63.8591803,42.3733398 64.1438442,43.3493301 64.5505129,44 L55.7665129,44 C55.6038454,43.5119976 55.47168,43.0138359 55.3700129,42.5055 C55.2683457,41.9971641 55.1971797,41.4786693 55.1565129,40.95 C53.7738393,42.3733404 52.1471889,43.3696638 50.2765129,43.939 C48.4058368,44.5083362 46.4945226,44.793 44.5425129,44.793 C43.0378387,44.793 41.6348527,44.6100018 40.3335129,44.244 C39.032173,43.8779982 37.8935177,43.3086705 36.9175129,42.536 C35.941508,41.7633295 35.1790156,40.7873392 34.6300129,39.608 C34.0810101,38.4286608 33.8065129,37.0256748 33.8065129,35.399 C33.8065129,33.6096577 34.1216764,32.1355058 34.7520129,30.9765 C35.3823493,29.8174942 36.1956745,28.8923368 37.1920129,28.201 C38.1883512,27.5096632 39.3270064,26.9911684 40.6080129,26.6455 C41.8890193,26.2998316 43.180173,26.0253343 44.4815129,25.822 C45.7828527,25.6186656 47.0638399,25.4560006 48.3245129,25.334 C49.5851858,25.2119994 50.703508,25.0290012 51.6795129,24.785 C52.6555177,24.5409988 53.4281767,24.185169 53.9975129,23.7175 C54.566849,23.249831 54.8311797,22.5686711 54.7905129,21.674 C54.7905129,20.738662 54.6380144,19.9965027 54.3330129,19.4475 C54.0280113,18.8984973 53.6213487,18.4715015 53.1130129,18.1665 C52.604677,17.8614985 52.0150162,17.6581672 51.3440129,17.5565 C50.6730095,17.4548328 49.9511834,17.404 49.1785129,17.404 C47.4705043,17.404 46.1285177,17.7699963 45.1525129,18.502 C44.176508,19.2340037 43.6071803,20.4539915 43.4445129,22.162 L34.7825129,22.162 Z M54.7905129,28.567 C54.424511,28.892335 53.9670156,29.1464991 53.4180129,29.3295 C52.8690101,29.5125009 52.2793493,29.6649994 51.6490129,29.787 C51.0186764,29.9090006 50.3578496,30.0106663 49.6665129,30.092 C48.9751761,30.1733337 48.2838496,30.2749994 47.5925129,30.397 C46.9418429,30.5190006 46.3013493,30.6816656 45.6710129,30.885 C45.0406764,31.0883343 44.4916819,31.3628316 44.0240129,31.7085 C43.5563438,32.0541684 43.1801809,32.4913307 42.8955129,33.02 C42.6108448,33.5486693 42.4685129,34.2196626 42.4685129,35.033 C42.4685129,35.8056705 42.6108448,36.4563307 42.8955129,36.985 C43.1801809,37.5136693 43.5665104,37.9304985 44.0545129,38.2355 C44.5425153,38.5405015 45.1118429,38.7539994 45.7625129,38.876 C46.4131828,38.9980006 47.0841761,39.059 47.7755129,39.059 C49.4835214,39.059 50.8051748,38.7743362 51.7405129,38.205 C52.6758509,37.6356638 53.3671773,36.954504 53.8145129,36.1615 C54.2618484,35.368496 54.5363457,34.5653374 54.6380129,33.752 C54.73968,32.9386626 54.7905129,32.2880024 54.7905129,31.8 L54.7905129,28.567 Z M68.4807129,12.463 L68.4807129,44 L77.1427129,44 L77.1427129,27.469 C77.1427129,24.2563173 77.6713743,21.948507 78.7287129,20.5455 C79.7860515,19.142493 81.4940344,18.441 83.8527129,18.441 C85.9267232,18.441 87.3703755,19.0814936 88.1837129,20.3625 C88.9970503,21.6435064 89.4037129,23.5853203 89.4037129,26.188 L89.4037129,44 L98.0657129,44 L98.0657129,24.602 C98.0657129,22.6499902 97.8928813,20.8708414 97.5472129,19.2645 C97.2015445,17.6581586 96.6017171,16.2958389 95.7477129,15.1775 C94.8937086,14.0591611 93.7245536,13.1848365 92.2402129,12.5545 C90.7558721,11.9241635 88.8547245,11.609 86.5367129,11.609 C84.7067037,11.609 82.9173883,12.0258292 81.1687129,12.8595 C79.4200375,13.6931708 77.9967184,15.0249908 76.8987129,16.855 L76.7157129,16.855 L76.7157129,12.463 L68.4807129,12.463 Z M125.358913,28.14 C125.358913,29.4413398 125.236914,30.7019939 124.992913,31.922 C124.748912,33.1420061 124.342249,34.2298286 123.772913,35.1855 C123.203577,36.1411714 122.441084,36.9036638 121.485413,37.473 C120.529741,38.0423362 119.340253,38.327 117.916913,38.327 C116.574906,38.327 115.426084,38.0321696 114.470413,37.4425 C113.514741,36.8528304 112.721749,36.0801714 112.091413,35.1245 C111.461076,34.1688286 111.003581,33.0810061 110.718913,31.861 C110.434245,30.6409939 110.291913,29.4210061 110.291913,28.201 C110.291913,26.8996602 110.424078,25.6491727 110.688413,24.4495 C110.952748,23.2498273 111.379743,22.182338 111.969413,21.247 C112.559083,20.311662 113.341908,19.5593362 114.317913,18.99 C115.293918,18.4206638 116.493572,18.136 117.916913,18.136 C119.340253,18.136 120.519575,18.4206638 121.454913,18.99 C122.390251,19.5593362 123.152743,20.3014954 123.742413,21.2165 C124.332083,22.1315046 124.748912,23.1888273 124.992913,24.3885 C125.236914,25.5881727 125.358913,26.8386602 125.358913,28.14 L125.358913,28.14 Z M125.480913,39.974 L125.480913,44 L133.715913,44 L133.715913,0.446 L125.053913,0.446 L125.053913,16.306 L124.931913,16.306 C123.955908,14.7606589 122.624088,13.591504 120.936413,12.7985 C119.248738,12.005496 117.469589,11.609 115.598913,11.609 C113.280901,11.609 111.247588,12.0664954 109.498913,12.9815 C107.750237,13.8965046 106.296419,15.1063258 105.137413,16.611 C103.978407,18.1156742 103.104083,19.8541568 102.514413,21.8265 C101.924743,23.7988432 101.629913,25.8423228 101.629913,27.957 C101.629913,30.153011 101.924743,32.2676565 102.514413,34.301 C103.104083,36.3343435 103.978407,38.1338255 105.137413,39.6995 C106.296419,41.2651745 107.770571,42.5054954 109.559913,43.4205 C111.349255,44.3355046 113.423234,44.793 115.781913,44.793 C117.855923,44.793 119.716405,44.4168371 121.363413,43.6645 C123.010421,42.9121629 124.342241,41.6820085 125.358913,39.974 L125.480913,39.974 Z M191.595468,44 L201.538468,12.463 L192.632468,12.463 L186.837468,33.813 L186.715468,33.813 L181.347468,12.463 L172.929468,12.463 L167.683468,33.874 L167.561468,33.874 L161.766468,12.463 L152.616468,12.463 L162.620468,44 L171.587468,44 L176.955468,22.833 L177.077468,22.833 L182.689468,44 L191.595468,44 Z M204.370245,0.446 L204.370245,44 L213.032245,44 L213.032245,27.469 C213.032245,24.2563173 213.560907,21.948507 214.618245,20.5455 C215.675584,19.142493 217.383567,18.441 219.742245,18.441 C221.816256,18.441 223.259908,19.0814936 224.073245,20.3625 C224.886583,21.6435064 225.293245,23.5853203 225.293245,26.188 L225.293245,44 L233.955245,44 L233.955245,24.602 C233.955245,22.6499902 233.782414,20.8708414 233.436745,19.2645 C233.091077,17.6581586 232.491249,16.2958389 231.637245,15.1775 C230.783241,14.0591611 229.614086,13.1848365 228.129745,12.5545 C226.645404,11.9241635 224.744257,11.609 222.426245,11.609 C220.79957,11.609 219.132254,12.0258292 217.424245,12.8595 C215.716237,13.6931708 214.313251,15.0249908 213.215245,16.855 L213.032245,16.855 L213.032245,0.446 L204.370245,0.446 Z M247.781023,7.583 L247.781023,0.446 L239.119023,0.446 L239.119023,7.583 L247.781023,7.583 Z M239.119023,12.463 L239.119023,44 L247.781023,44 L247.781023,12.463 L239.119023,12.463 Z M264.7648,12.463 L264.7648,3.008 L256.1028,3.008 L256.1028,12.463 L250.8568,12.463 L250.8568,18.258 L256.1028,18.258 L256.1028,36.863 C256.1028,38.4490079 256.367131,39.7299951 256.8958,40.706 C257.424469,41.6820049 258.146295,42.4343307 259.0613,42.963 C259.976305,43.4916693 261.033627,43.8474991 262.2333,44.0305 C263.432973,44.2135009 264.703793,44.305 266.0458,44.305 C266.899804,44.305 267.774129,44.2846669 268.6688,44.244 C269.563471,44.2033331 270.376796,44.1220006 271.1088,44 L271.1088,37.29 C270.702131,37.3713337 270.275136,37.4323331 269.8278,37.473 C269.380464,37.5136669 268.912802,37.534 268.4248,37.534 C266.960793,37.534 265.984802,37.2900024 265.4968,36.802 C265.008798,36.3139976 264.7648,35.3380073 264.7648,33.874 L264.7648,18.258 L271.1088,18.258 L271.1088,12.463 L264.7648,12.463 Z M284.568577,12.463 L284.568577,3.008 L275.906577,3.008 L275.906577,12.463 L270.660577,12.463 L270.660577,18.258 L275.906577,18.258 L275.906577,36.863 C275.906577,38.4490079 276.170908,39.7299951 276.699577,40.706 C277.228247,41.6820049 277.950073,42.4343307 278.865077,42.963 C279.780082,43.4916693 280.837405,43.8474991 282.037077,44.0305 C283.23675,44.2135009 284.507571,44.305 285.849577,44.305 C286.703582,44.305 287.577906,44.2846669 288.472577,44.244 C289.367249,44.2033331 290.180574,44.1220006 290.912577,44 L290.912577,37.29 C290.505909,37.3713337 290.078913,37.4323331 289.631577,37.473 C289.184242,37.5136669 288.71658,37.534 288.228577,37.534 C286.76457,37.534 285.78858,37.2900024 285.300577,36.802 C284.812575,36.3139976 284.568577,35.3380073 284.568577,33.874 L284.568577,18.258 L290.912577,18.258 L290.912577,12.463 L284.568577,12.463 Z M294.476355,0.446 L294.476355,44 L303.138355,44 L303.138355,0.446 L294.476355,0.446 Z M329.530132,24.846 L315.439132,24.846 C315.479799,24.2359969 315.611965,23.5446705 315.835632,22.772 C316.0593,21.9993295 316.44563,21.2673368 316.994632,20.576 C317.543635,19.8846632 318.275628,19.305169 319.190632,18.8375 C320.105637,18.369831 321.254459,18.136 322.637132,18.136 C324.75181,18.136 326.327627,18.7053276 327.364632,19.844 C328.401638,20.9826724 329.123464,22.649989 329.530132,24.846 L329.530132,24.846 Z M315.439132,30.336 L338.192132,30.336 C338.3548,27.8959878 338.151468,25.5576778 337.582132,23.321 C337.012796,21.0843221 336.087639,19.0916754 334.806632,17.343 C333.525626,15.5943246 331.888809,14.2015052 329.896132,13.1645 C327.903456,12.1274948 325.565146,11.609 322.881132,11.609 C320.481787,11.609 318.295976,12.0359957 316.323632,12.89 C314.351289,13.7440043 312.653473,14.9131592 311.230132,16.3975 C309.806792,17.8818408 308.708803,19.6406565 307.936132,21.674 C307.163462,23.7073435 306.777132,25.9033215 306.777132,28.262 C306.777132,30.7020122 307.153295,32.9386565 307.905632,34.972 C308.657969,37.0053435 309.725459,38.7539927 311.108132,40.218 C312.490806,41.6820073 314.178456,42.810496 316.171132,43.6035 C318.163809,44.396504 320.400453,44.793 322.881132,44.793 C326.459817,44.793 329.509786,43.9796748 332.031132,42.353 C334.552478,40.7263252 336.423126,38.0220189 337.643132,34.24 L330.018132,34.24 C329.733464,35.2160049 328.960805,36.1411623 327.700132,37.0155 C326.439459,37.8898377 324.934808,38.327 323.186132,38.327 C320.74612,38.327 318.875472,37.696673 317.574132,36.436 C316.272792,35.175327 315.561133,33.142014 315.439132,30.336 L315.439132,30.336 Z M364.87491,28.14 C364.87491,29.4413398 364.752911,30.7019939 364.50891,31.922 C364.264909,33.1420061 363.858246,34.2298286 363.28891,35.1855 C362.719574,36.1411714 361.957081,36.9036638 361.00141,37.473 C360.045738,38.0423362 358.85625,38.327 357.43291,38.327 C356.090903,38.327 354.942081,38.0321696 353.98641,37.4425 C353.030738,36.8528304 352.237746,36.0801714 351.60741,35.1245 C350.977073,34.1688286 350.519578,33.0810061 350.23491,31.861 C349.950242,30.6409939 349.80791,29.4210061 349.80791,28.201 C349.80791,26.8996602 349.940075,25.6491727 350.20441,24.4495 C350.468744,23.2498273 350.89574,22.182338 351.48541,21.247 C352.075079,20.311662 352.857905,19.5593362 353.83391,18.99 C354.809915,18.4206638 356.009569,18.136 357.43291,18.136 C358.85625,18.136 360.035572,18.4206638 360.97091,18.99 C361.906248,19.5593362 362.66874,20.3014954 363.25841,21.2165 C363.848079,22.1315046 364.264909,23.1888273 364.50891,24.3885 C364.752911,25.5881727 364.87491,26.8386602 364.87491,28.14 L364.87491,28.14 Z M364.99691,39.974 L364.99691,44 L373.23191,44 L373.23191,0.446 L364.56991,0.446 L364.56991,16.306 L364.44791,16.306 C363.471905,14.7606589 362.140085,13.591504 360.45241,12.7985 C358.764735,12.005496 356.985586,11.609 355.11491,11.609 C352.796898,11.609 350.763585,12.0664954 349.01491,12.9815 C347.266234,13.8965046 345.812416,15.1063258 344.65341,16.611 C343.494404,18.1156742 342.620079,19.8541568 342.03041,21.8265 C341.44074,23.7988432 341.14591,25.8423228 341.14591,27.957 C341.14591,30.153011 341.44074,32.2676565 342.03041,34.301 C342.620079,36.3343435 343.494404,38.1338255 344.65341,39.6995 C345.812416,41.2651745 347.286567,42.5054954 349.07591,43.4205 C350.865252,44.3355046 352.939231,44.793 355.29791,44.793 C357.37192,44.793 359.232402,44.4168371 360.87941,43.6645 C362.526418,42.9121629 363.858238,41.6820085 364.87491,39.974 L364.99691,39.974 Z" id="hand-whittled"></path>
                    <rect id="Rectangle-53" x="270.5" y="12.4599915" width="1" height="5.80000019"></rect>
                </g>
            </g>
        </g>
    </g>
</svg>