<?xml version="1.0" encoding="UTF-8" standalone="no"?>
<svg width="16px" height="8px" viewBox="0 0 16 8" version="1.1" xmlns="http://www.w3.org/2000/svg" xmlns:xlink="http://www.w3.org/1999/xlink" xmlns:sketch="http://www.bohemiancoding.com/sketch/ns">
    <!-- Generator: Sketch 3.5.2 (25235) - http://www.bohemiancoding.com/sketch -->
    <title>Group</title>
    <desc>Created with Sketch.</desc>
    <defs></defs>
    <g id="Page-1" stroke="none" stroke-width="1" fill="none" fill-rule="evenodd" sketch:type="MSPage">
        <g id="32W" sketch:type="MSArtboardGroup" transform="translate(-24.000000, -28.000000)">
            <g id="Group" sketch:type="MSLayerGroup" transform="translate(24.000000, 28.000000)">
                <path d="M0,6.15111111 L0,7.95186773 L0.35813367,7.95186773 L0.35813367,7.26838728 C0.35813367,7.13555769 0.379991375,7.0401404 0.42370744,6.98213255 C0.467423506,6.92412469 0.538040706,6.8951212 0.63556116,6.8951212 C0.721311904,6.8951212 0.781000252,6.92160265 0.814627995,6.97456634 C0.848255738,7.02753004 0.865069357,7.10781507 0.865069357,7.21542385 L0.865069357,7.95186773 L1.22320303,7.95186773 L1.22320303,7.14985008 C1.22320303,7.06914349 1.21605724,6.99558391 1.20176545,6.92916912 C1.18747366,6.86275433 1.16267357,6.8064287 1.12736444,6.76019056 C1.09205531,6.71395241 1.04371615,6.67780313 0.982345523,6.65174163 C0.920974893,6.62568013 0.842371223,6.61264957 0.746532156,6.61264957 C0.679276671,6.61264957 0.610340832,6.62988353 0.539722573,6.66435197 C0.469104313,6.6988204 0.411097327,6.75388501 0.365699874,6.82954743 L0.35813367,6.82954743 L0.35813367,6.15111111 L0,6.15111111 L0,6.15111111 Z M1.48045397,7.04896735 C1.48549813,6.964898 1.50651516,6.89512148 1.54350567,6.8396357 C1.58049619,6.78414993 1.62757433,6.73959383 1.68474149,6.70596609 C1.74190865,6.67233835 1.80622074,6.64837894 1.8776797,6.63408715 C1.94913865,6.61979536 2.02101687,6.61264957 2.09331652,6.61264957 C2.15889062,6.61264957 2.22530441,6.61727332 2.2925599,6.62652095 C2.35981538,6.63576858 2.42118509,6.65384322 2.47667087,6.68074541 C2.53215665,6.70764761 2.57755342,6.74505791 2.61286255,6.79297744 C2.64817168,6.84089697 2.66582598,6.90436839 2.66582598,6.98339358 L2.66582598,7.6618299 C2.66582598,7.72067845 2.6691887,7.77700407 2.67591425,7.83080846 C2.6826398,7.88461285 2.69440933,7.92496554 2.7112232,7.95186773 L2.3480454,7.95186773 C2.34131985,7.93169109 2.33585542,7.9110944 2.33165195,7.89007706 C2.32744849,7.86905972 2.3245061,7.84762236 2.32282472,7.82576433 C2.26565755,7.88461288 2.19840308,7.92580624 2.12105927,7.94934566 C2.04371546,7.97288508 1.96469145,7.98465462 1.88398487,7.98465462 C1.82177354,7.98465462 1.76376656,7.97708849 1.70996217,7.961956 C1.65615778,7.94682352 1.60907965,7.92328445 1.56872636,7.8913381 C1.52837306,7.85939174 1.49684753,7.81903906 1.4741488,7.77027883 C1.45145008,7.7215186 1.44010088,7.66351162 1.44010088,7.59625613 C1.44010088,7.5222751 1.45313144,7.46132573 1.47919294,7.41340619 C1.50525444,7.36548666 1.53888168,7.32723568 1.58007566,7.29865209 C1.62126965,7.27006851 1.66834778,7.24863115 1.72131148,7.23433936 C1.77427517,7.22004757 1.82765841,7.20869837 1.8814628,7.20029144 C1.93526719,7.1918845 1.98823009,7.18515906 2.04035309,7.18011489 C2.09247609,7.17507073 2.13871354,7.1675046 2.17906683,7.15741628 C2.21942013,7.14732796 2.251366,7.13261604 2.27490542,7.11328009 C2.29844484,7.09394414 2.30937369,7.06578133 2.30769231,7.02879081 C2.30769231,6.9901189 2.3013872,6.95943405 2.2887768,6.93673532 C2.27616639,6.9140366 2.25935277,6.8963823 2.23833544,6.88377189 C2.2173181,6.87116149 2.19293835,6.86275468 2.16519546,6.85855121 C2.13745257,6.85434774 2.1076084,6.85224604 2.07566204,6.85224604 C2.00504378,6.85224604 1.94955884,6.8673783 1.90920555,6.89764327 C1.86885226,6.92790824 1.84531319,6.97834909 1.83858764,7.04896735 L1.48045397,7.04896735 L1.48045397,7.04896735 Z M2.30769231,7.3137845 C2.29255982,7.3272356 2.2736445,7.33774411 2.25094578,7.34531035 C2.22824705,7.3528766 2.2038673,7.3591817 2.1778058,7.36422587 C2.1517443,7.36927003 2.12442217,7.37347343 2.09583859,7.37683621 C2.06725501,7.38019898 2.03867185,7.38440238 2.01008827,7.38944655 C1.98318608,7.39449071 1.95670463,7.40121616 1.93064313,7.40962309 C1.90458163,7.41803003 1.88188324,7.42937922 1.86254729,7.44367101 C1.84321134,7.4579628 1.82765874,7.47603744 1.81588903,7.49789547 C1.80411932,7.51975351 1.79823455,7.54749598 1.79823455,7.58112372 C1.79823455,7.61307008 1.80411932,7.63997187 1.81588903,7.6618299 C1.82765874,7.68368793 1.84363168,7.70092189 1.86380832,7.7135323 C1.88398497,7.7261427 1.90752404,7.73496985 1.93442623,7.74001401 C1.96132842,7.74505817 1.9890709,7.74758022 2.01765448,7.74758022 C2.08827274,7.74758022 2.142917,7.73581068 2.1815889,7.71227126 C2.22026081,7.68873184 2.24884396,7.66056903 2.26733922,7.62778198 C2.28583448,7.59499493 2.29718367,7.56178803 2.30138714,7.52816029 C2.30559061,7.49453255 2.30769231,7.46763076 2.30769231,7.44745411 L2.30769231,7.3137845 L2.30769231,7.3137845 Z M2.94325347,6.64795853 L2.94325347,7.95186773 L3.30138714,7.95186773 L3.30138714,7.26838728 C3.30138714,7.13555769 3.32324484,7.0401404 3.36696091,6.98213255 C3.41067697,6.92412469 3.48129417,6.8951212 3.57881463,6.8951212 C3.66456537,6.8951212 3.72425372,6.92160265 3.75788146,6.97456634 C3.79150921,7.02753004 3.80832282,7.10781507 3.80832282,7.21542385 L3.80832282,7.95186773 L4.16645649,7.95186773 L4.16645649,7.14985008 C4.16645649,7.06914349 4.15931071,6.99558391 4.14501892,6.92916912 C4.13072712,6.86275433 4.10592704,6.8064287 4.07061791,6.76019056 C4.03530878,6.71395241 3.98696962,6.67780313 3.92559899,6.65174163 C3.86422836,6.62568013 3.78562469,6.61264957 3.68978562,6.61264957 C3.6141232,6.61264957 3.54014328,6.62988353 3.46784363,6.66435197 C3.39554398,6.6988204 3.33669632,6.75388501 3.29129887,6.82954743 L3.28373266,6.82954743 L3.28373266,6.64795853 L2.94325347,6.64795853 L2.94325347,6.64795853 Z M5.36443884,7.29613003 C5.36443884,7.34993442 5.35939475,7.40205663 5.34930643,7.45249825 C5.33921811,7.50293986 5.32240449,7.54791629 5.29886507,7.58742889 C5.27532565,7.62694149 5.24380011,7.65846703 5.20428752,7.68200645 C5.16477492,7.70554587 5.11559508,7.7173154 5.05674653,7.7173154 C5.00126076,7.7173154 4.95376228,7.70512552 4.91424968,7.68074541 C4.87473709,7.6563653 4.84195053,7.62441942 4.81588903,7.58490682 C4.78982753,7.54539423 4.77091221,7.50041779 4.7591425,7.44997618 C4.74737279,7.39953457 4.74148802,7.34909371 4.74148802,7.29865209 C4.74148802,7.24484771 4.74695245,7.19314583 4.75788146,7.14354491 C4.76881048,7.09394399 4.78646478,7.04980824 4.81084489,7.01113633 C4.83522501,6.97246443 4.86759122,6.94135923 4.90794451,6.91781981 C4.94829781,6.89428039 4.99789798,6.88251086 5.05674653,6.88251086 C5.11559508,6.88251086 5.16435458,6.89428039 5.20302648,6.91781981 C5.24169839,6.94135923 5.27322392,6.97204409 5.29760404,7.0098753 C5.32198415,7.04770651 5.33921811,7.09142192 5.34930643,7.14102284 C5.35939475,7.19062376 5.36443884,7.24232564 5.36443884,7.29613003 L5.36443884,7.29613003 L5.36443884,7.29613003 Z M5.36948298,7.78541124 L5.36948298,7.95186773 L5.70996217,7.95186773 L5.70996217,6.15111111 L5.3518285,6.15111111 L5.3518285,6.80684882 L5.34678436,6.80684882 C5.30643107,6.7429561 5.25136647,6.69461695 5.1815889,6.6618299 C5.11181134,6.62904285 5.03825175,6.61264957 4.96090794,6.61264957 C4.86506888,6.61264957 4.78100078,6.63156489 4.70870113,6.6693961 C4.63640149,6.70722732 4.5762928,6.75724783 4.52837327,6.81945916 C4.48045373,6.88167048 4.44430445,6.9535487 4.41992434,7.03509598 C4.39554422,7.11664325 4.38335435,7.20113169 4.38335435,7.28856382 C4.38335435,7.37935873 4.39554422,7.46678955 4.41992434,7.5508589 C4.44430445,7.63492826 4.48045373,7.70932853 4.52837327,7.77406193 C4.5762928,7.83879534 4.63724217,7.89007687 4.7112232,7.92790808 C4.78520424,7.9657393 4.87095369,7.98465462 4.96847415,7.98465462 C5.05422489,7.98465462 5.1311472,7.96910202 5.19924338,7.93799636 C5.26733956,7.90689069 5.32240416,7.8560295 5.36443884,7.78541124 L5.36948298,7.78541124 L5.36948298,7.78541124 Z M8.17150063,7.95186773 L8.58259773,6.64795853 L8.21437579,6.64795853 L7.97477932,7.53068236 L7.96973518,7.53068236 L7.74779319,6.64795853 L7.39974779,6.64795853 L7.18284994,7.53320443 L7.1778058,7.53320443 L6.93820933,6.64795853 L6.55989912,6.64795853 L6.97351828,7.95186773 L7.3442623,7.95186773 L7.56620429,7.0767101 L7.57124842,7.0767101 L7.80327869,7.95186773 L8.17150063,7.95186773 L8.17150063,7.95186773 Z M8.73392182,6.15111111 L8.73392182,7.95186773 L9.09205549,7.95186773 L9.09205549,7.26838728 C9.09205549,7.13555769 9.11391319,7.0401404 9.15762926,6.98213255 C9.20134532,6.92412469 9.27196252,6.8951212 9.36948298,6.8951212 C9.45523372,6.8951212 9.51492207,6.92160265 9.54854981,6.97456634 C9.58217755,7.02753004 9.59899117,7.10781507 9.59899117,7.21542385 L9.59899117,7.95186773 L9.95712484,7.95186773 L9.95712484,7.14985008 C9.95712484,7.06914349 9.94997905,6.99558391 9.93568726,6.92916912 C9.92139547,6.86275433 9.89659538,6.8064287 9.86128625,6.76019056 C9.82597712,6.71395241 9.77763797,6.67780313 9.71626734,6.65174163 C9.65489671,6.62568013 9.57629304,6.61264957 9.48045397,6.61264957 C9.41319849,6.61264957 9.34426265,6.62988353 9.27364439,6.66435197 C9.20302613,6.6988204 9.14501914,6.75388501 9.09962169,6.82954743 L9.09205549,6.82954743 L9.09205549,6.15111111 L8.73392182,6.15111111 L8.73392182,6.15111111 Z M10.5977301,6.44619308 L10.5977301,6.15111111 L10.2395965,6.15111111 L10.2395965,6.44619308 L10.5977301,6.44619308 L10.5977301,6.44619308 Z M11.591425,6.887555 L11.334174,6.887555 L11.334174,7.53320443 C11.334174,7.59373436 11.3442622,7.63408705 11.3644388,7.6542637 C11.3846155,7.67444034 11.4249682,7.68452851 11.4854981,7.68452851 C11.5056748,7.68452851 11.5250104,7.68368783 11.5435057,7.68200645 C11.5620009,7.68032506 11.5796552,7.67780302 11.5964691,7.67444024 L11.5964691,7.95186773 C11.5662041,7.95691189 11.5325769,7.96027462 11.4955864,7.961956 C11.4585959,7.96363739 11.4224466,7.96447807 11.3871375,7.96447807 C11.3316517,7.96447807 11.2791091,7.96069501 11.2295082,7.95312877 C11.1799073,7.94556252 11.1361919,7.93085061 11.0983607,7.90899257 C11.0605294,7.88713454 11.0306853,7.85602935 11.0088272,7.81567605 C10.9869692,7.77532276 10.9760404,7.72235986 10.9760404,7.65678576 L10.9760404,6.887555 L10.7591425,6.887555 L10.7591425,6.64795853 L10.9760404,6.64795853 L10.9760404,6.25703797 L11.334174,6.25703797 L11.334174,6.64795853 L11.591425,6.64795853 L11.8032787,6.64795853 L11.8032787,6.25703797 L12.1614124,6.25703797 L12.1614124,6.64795853 L12.4237074,6.64795853 L12.4237074,6.887555 L12.1614124,6.887555 L12.1614124,7.53320443 C12.1614124,7.59373436 12.1715005,7.63408705 12.1916772,7.6542637 C12.2118538,7.67444034 12.2522065,7.68452851 12.3127364,7.68452851 C12.3329131,7.68452851 12.3522488,7.68368783 12.370744,7.68200645 C12.3892393,7.68032506 12.4068936,7.67780302 12.4237074,7.67444024 L12.4237074,7.95186773 C12.3934425,7.95691189 12.3598152,7.96027462 12.3228247,7.961956 C12.2858342,7.96363739 12.2496849,7.96447807 12.2143758,7.96447807 C12.15889,7.96447807 12.1063475,7.96069501 12.0567465,7.95312877 C12.0071456,7.94556252 11.9634302,7.93085061 11.925599,7.90899257 C11.8877678,7.88713454 11.8579236,7.85602935 11.8360656,7.81567605 C11.8142075,7.77532276 11.8032787,7.72235986 11.8032787,7.65678576 L11.8032787,6.887555 L11.591425,6.887555 L11.591425,6.887555 Z M10.2395965,6.64795853 L10.2395965,7.95186773 L10.5977301,7.95186773 L10.5977301,6.64795853 L10.2395965,6.64795853 L10.2395965,6.64795853 Z M12.6052963,6.15111111 L12.6052963,7.95186773 L12.96343,7.95186773 L12.96343,6.15111111 L12.6052963,6.15111111 L12.6052963,6.15111111 Z M14.1235813,7.15993835 L13.5409836,7.15993835 C13.542665,7.13471754 13.5481294,7.10613439 13.557377,7.07418803 C13.5666247,7.04224168 13.5825976,7.01197716 13.6052963,6.98339358 C13.6279951,6.95481 13.6582596,6.93085059 13.6960908,6.91151464 C13.733922,6.89217869 13.7814205,6.88251086 13.8385876,6.88251086 C13.9260198,6.88251086 13.9911725,6.90604993 14.0340479,6.95312877 C14.0769233,7.00020761 14.1067675,7.06914344 14.1235813,7.15993835 L14.1235813,7.15993835 L14.1235813,7.15993835 Z M13.5409836,7.38692448 L14.481715,7.38692448 C14.4884406,7.28604125 14.4800337,7.18936294 14.4564943,7.09688665 C14.4329549,7.00441035 14.3947039,6.92202362 14.3417402,6.84972397 C14.2887765,6.77742433 14.2211017,6.71983768 14.1387137,6.67696231 C14.0563258,6.63408694 13.9596475,6.61264957 13.8486759,6.61264957 C13.7494741,6.61264957 13.6591009,6.63030387 13.5775536,6.665613 C13.4960063,6.70092213 13.4258095,6.74926129 13.3669609,6.81063192 C13.3081124,6.87200255 13.2627156,6.94472145 13.2307692,7.02879081 C13.1988229,7.11286017 13.1828499,7.20365371 13.1828499,7.30117416 C13.1828499,7.40205739 13.1984025,7.4945323 13.2295082,7.57860165 C13.2606139,7.66267101 13.3047496,7.73496957 13.3619168,7.79549951 C13.4190839,7.85602945 13.4888605,7.90268724 13.5712484,7.93547429 C13.6536364,7.96826134 13.7461113,7.98465462 13.8486759,7.98465462 C13.996638,7.98465462 14.1227401,7.95102738 14.2269861,7.88377189 C14.3312321,7.81651641 14.4085748,7.70470584 14.4590164,7.54833684 L14.1437579,7.54833684 C14.1319882,7.58869013 14.1000423,7.62694111 14.0479193,7.66309093 C13.9957963,7.69924076 13.9335859,7.7173154 13.8612863,7.7173154 C13.760403,7.7173154 13.6830604,7.69125429 13.629256,7.63913129 C13.5754516,7.58700829 13.5460278,7.50294019 13.5409836,7.38692448 L13.5409836,7.38692448 L13.5409836,7.38692448 Z M15.6191677,7.29613003 C15.6191677,7.34993442 15.6141236,7.40205663 15.6040353,7.45249825 C15.593947,7.50293986 15.5771334,7.54791629 15.5535939,7.58742889 C15.5300545,7.62694149 15.498529,7.65846703 15.4590164,7.68200645 C15.4195038,7.70554587 15.370324,7.7173154 15.3114754,7.7173154 C15.2559896,7.7173154 15.2084912,7.70512552 15.1689786,7.68074541 C15.129466,7.6563653 15.0966794,7.62441942 15.0706179,7.58490682 C15.0445564,7.54539423 15.0256411,7.50041779 15.0138714,7.44997618 C15.0021017,7.39953457 14.9962169,7.34909371 14.9962169,7.29865209 C14.9962169,7.24484771 15.0016813,7.19314583 15.0126103,7.14354491 C15.0235394,7.09394399 15.0411937,7.04980824 15.0655738,7.01113633 C15.0899539,6.97246443 15.1223201,6.94135923 15.1626734,6.91781981 C15.2030267,6.89428039 15.2526269,6.88251086 15.3114754,6.88251086 C15.370324,6.88251086 15.4190835,6.89428039 15.4577554,6.91781981 C15.4964273,6.94135923 15.5279528,6.97204409 15.5523329,7.0098753 C15.576713,7.04770651 15.593947,7.09142192 15.6040353,7.14102284 C15.6141236,7.19062376 15.6191677,7.24232564 15.6191677,7.29613003 L15.6191677,7.29613003 L15.6191677,7.29613003 Z M15.6242119,7.78541124 L15.6242119,7.95186773 L15.964691,7.95186773 L15.964691,6.15111111 L15.6065574,6.15111111 L15.6065574,6.80684882 L15.6015132,6.80684882 C15.5611599,6.7429561 15.5060953,6.69461695 15.4363178,6.6618299 C15.3665402,6.62904285 15.2929806,6.61264957 15.2156368,6.61264957 C15.1197978,6.61264957 15.0357297,6.63156489 14.96343,6.6693961 C14.8911304,6.70722732 14.8310217,6.75724783 14.7831021,6.81945916 C14.7351826,6.88167048 14.6990333,6.9535487 14.6746532,7.03509598 C14.6502731,7.11664325 14.6380832,7.20113169 14.6380832,7.28856382 C14.6380832,7.37935873 14.6502731,7.46678955 14.6746532,7.5508589 C14.6990333,7.63492826 14.7351826,7.70932853 14.7831021,7.77406193 C14.8310217,7.83879534 14.891971,7.89007687 14.9659521,7.92790808 C15.0399331,7.9657393 15.1256826,7.98465462 15.223203,7.98465462 C15.3089538,7.98465462 15.3858761,7.96910202 15.4539723,7.93799636 C15.5220684,7.90689069 15.577133,7.8560295 15.6191677,7.78541124 L15.6242119,7.78541124 L15.6242119,7.78541124 Z" id="hand-whittled" fill="#000000" sketch:type="MSShapeGroup"></path>
                <path d="M10.3036062,3.85942123 L8.43903735,0.495650005 C8.26604668,0.183566586 7.88133263,0.0745492528 7.57532925,0.244169694 C7.26719248,0.414972698 7.15887326,0.799553523 7.32862642,1.10579634 L9.69076768,5.36721198 C9.86248752,5.67700277 10.2511294,5.79310613 10.5632164,5.63446072 C10.5640911,5.63401609 10.5649642,5.63356976 10.5658357,5.63312175 C10.6752595,5.58303593 10.7717325,5.5011779 10.8404184,5.39125746 L12.3824737,2.92345304 C12.573537,2.61768792 12.4783294,2.23482732 12.1816226,2.04942436 C11.8828473,1.8627288 11.4937832,1.95473977 11.3080035,2.25204952 L10.3036062,3.85942123 Z" id="Rectangle-110-Copy-2" fill="#9E4FA2" sketch:type="MSShapeGroup"></path>
                <path d="M7.98942804,5.42889388 C8.15169811,5.72163683 8.52043493,5.82731817 8.81310671,5.66508756 L8.8613847,5.63832663 C9.15393084,5.47616565 9.25979769,5.10732071 9.0975643,4.81464392 L6.60510958,0.318136592 C6.44283952,0.0253936462 6.07410269,-0.0802877013 5.78143092,0.0819429134 L5.73315292,0.108703843 C5.44060678,0.270864816 5.33473994,0.639709766 5.49697333,0.932386547 L7.98942804,5.42889388 L7.98942804,5.42889388 Z" id="Rectangle-126-Copy-2" fill="#DF3713" sketch:type="MSShapeGroup"></path>
                <path d="M6.2656644,5.44989035 C6.42793444,5.74263325 6.79667631,5.84832371 7.08934809,5.68609309 L7.13762609,5.65933216 C7.43017223,5.49717119 7.53603682,5.12832218 7.37380065,4.83564039 L5.52976731,1.50891618 C5.36749727,1.21617328 4.9987554,1.11048283 4.70608362,1.27271344 L4.65780563,1.29947437 C4.36525949,1.46163534 4.2593949,1.83048435 4.42163106,2.12316614 L6.2656644,5.44989035 L6.2656644,5.44989035 Z" id="Rectangle-105-Copy-3" fill="#F09403" sketch:type="MSShapeGroup"></path>
                <path d="M4.53735552,5.4760818 C4.69969262,5.76894568 5.06840372,5.87458062 5.3610755,5.71235001 L5.40935349,5.68558908 C5.70189963,5.52342811 5.80774798,5.15454979 5.64549177,4.86183184 L4.61204516,2.99744481 C4.44970806,2.70458092 4.08099696,2.59894598 3.78832518,2.7611766 L3.74004719,2.78793753 C3.44750105,2.9500985 3.3416527,3.31897682 3.50390891,3.61169477 L4.53735552,5.4760818 L4.53735552,5.4760818 Z" id="Rectangle-109-Copy-2" fill="#E9D600" sketch:type="MSShapeGroup"></path>
            </g>
        </g>
    </g>
</svg>