<?xml version="1.0" encoding="UTF-8" standalone="no"?>
<svg width="510px" height="323px" viewBox="0 0 510 323" version="1.1" xmlns="http://www.w3.org/2000/svg" xmlns:xlink="http://www.w3.org/1999/xlink">
    <!-- Generator: Sketch 3.8.3 (29802) - http://www.bohemiancoding.com/sketch -->
    <title>Group</title>
    <desc>Created with Sketch.</desc>
    <defs></defs>
    <g id="Page-1" stroke="none" stroke-width="1" fill="none" fill-rule="evenodd">
        <g id="Original" transform="translate(0.000000, -84.000000)">
            <g id="Group" transform="translate(0.000000, 84.000000)">
                <path d="M387.577848,218.738746 L282.558102,29.2781098 C273.013752,12.0596458 251.324961,5.83969772 234.112271,15.3808475 C216.895796,24.9240952 210.682241,46.6132873 220.225455,63.8296997 L353.115464,303.569622 C362.661324,320.790811 384.615607,327.513821 402.15764,318.596552 L402.204201,318.572884 C402.328654,318.50962 402.452551,318.445737 402.575889,318.381242 C408.618986,315.569846 413.944015,311.033046 417.739687,304.958701 L504.547995,166.036368 C514.982751,149.337268 509.906027,127.355339 493.216272,116.926422 C476.522847,106.495213 454.540462,111.576163 444.109044,128.26992 L387.577848,218.738746 Z" id="Purple" fill="#9E4FA2"></path>
                <path d="M257.405327,305.375281 C266.533019,321.842071 287.274465,327.786647 303.737252,318.661175 L306.45289,317.155873 C322.90861,308.034318 328.86362,287.28679 319.737992,270.823721 L179.537414,17.8951833 C170.409723,1.4283926 149.668277,-4.5161832 133.205489,4.60928888 L130.489852,6.11459118 C114.034132,15.2361459 108.079122,35.9836743 117.20475,52.4467433 L257.405327,305.375281 L257.405327,305.375281 Z" id="Red" fill="#DF3713"></path>
                <path d="M160.443623,304.91003 C169.571312,321.376818 190.313043,327.321906 206.77583,318.196434 L209.491467,316.691132 C225.947188,307.569577 231.902071,286.82182 222.776287,270.35847 L119.049411,83.2302331 C109.921722,66.7634448 89.1799912,60.8183567 72.7172038,69.9438288 L70.0015665,71.4491311 C53.5458462,80.5706858 47.5909629,101.318442 56.7167471,117.781793 L160.443623,304.91003 L160.443623,304.91003 Z" id="Orange" fill="#F09403"></path>
                <path d="M63.2262478,304.736997 C72.3577099,321.21059 93.0977092,327.152556 109.560497,318.027084 L112.276134,316.521781 C128.731854,307.400227 134.685824,286.650821 125.558912,270.185437 L67.4275404,165.313666 C58.2960783,148.840073 37.5560789,142.898107 21.0932915,152.023579 L18.3776543,153.528881 C1.92193394,162.650436 -4.03203545,183.399842 5.09487618,199.865226 L63.2262478,304.736997 L63.2262478,304.736997 Z" id="Yellow" fill="#E9D600"></path>
            </g>
        </g>
    </g>
</svg>