<svg xmlns="http://www.w3.org/2000/svg" width="255" height="162" viewBox="0 0 255 162">
  <g fill="none" fill-rule="evenodd">
    <path fill="#9E4FA2" d="M193.788924,109.369373 L222.054522,64.1349602 C227.270231,55.7880814 238.261423,53.2476064 246.608136,58.4632112 C254.953014,63.6776695 257.491375,74.668634 252.273997,83.0181841 L208.869843,152.479351 C206.972007,155.516523 204.309493,157.784923 201.287944,159.190621 C201.226275,159.222869 201.164327,159.25481 201.102101,159.286442 L201.07882,159.298276 C192.307803,163.75691 181.327198,160.389155 176.562621,151.793632 L110.107838,31.9060287 C105.338931,23.3026943 108.447898,12.4620476 117.056135,7.69042377 C125.66248,2.91984886 136.510355,6.03609891 141.279051,14.6390549 L193.788924,109.369373 Z"/>
    <path fill="#DF3713" d="M128.702664,152.68764 C133.266509,160.921036 143.637232,163.893324 151.868626,159.330588 L153.226445,158.577936 C161.454305,154.017159 164.43181,143.643395 159.868996,135.41186 L89.768707,8.94759165 C85.2048614,0.714196299 74.8341383,-2.2580916 66.6027446,2.30464444 L65.2449259,3.05729559 C57.0170658,7.61807296 54.0395608,17.9918372 58.6023749,26.2233716 L128.702664,152.68764 L128.702664,152.68764 Z"/>
    <path fill="#F09403" d="M80.2218113,152.455015 C84.7856562,160.688409 95.1565213,163.660953 103.387915,159.098217 L104.745734,158.345566 C112.973594,153.784789 115.951035,143.41091 111.388143,135.179235 L59.5247057,41.6151165 C54.9608608,33.3817224 44.5899956,30.4091783 36.3586019,34.9719144 L35.0007833,35.7245655 C26.7729231,40.2853429 23.7954814,50.6592212 28.3583736,58.8908965 L80.2218113,152.455015 L80.2218113,152.455015 Z"/>
    <path fill="#E9D600" d="M31.6131239,152.368498 C36.1788549,160.605295 46.5488546,163.576278 54.7802483,159.013542 L56.1380669,158.260891 C64.3659271,153.700113 67.3429118,143.325411 62.779456,135.092718 L33.7137702,82.6568331 C29.1480392,74.4200363 18.7780395,71.4490536 10.5466458,76.0117896 L9.18882715,76.7644407 C0.960966969,81.3252181 -2.01601772,91.6999208 2.54743809,99.9326131 L31.6131239,152.368498 L31.6131239,152.368498 Z"/>
  </g>
</svg>
