<?xml version="1.0" encoding="UTF-8" standalone="no"?>
<svg width="336px" height="213px" viewBox="0 0 336 213" version="1.1" xmlns="http://www.w3.org/2000/svg" xmlns:xlink="http://www.w3.org/1999/xlink">
    <!-- Generator: Sketch 3.8.3 (29802) - http://www.bohemiancoding.com/sketch -->
    <title>Group</title>
    <desc>Created with Sketch.</desc>
    <defs></defs>
    <g id="Page-1" stroke="none" stroke-width="1" fill="none" fill-rule="evenodd">
        <g id="Logo" transform="translate(-88.000000, -139.000000)">
            <g id="Group" transform="translate(88.000000, 139.000000)">
                <path d="M255.104951,143.974526 L185.980626,19.2709434 C179.693927,7.92943806 165.422874,3.84370729 154.093428,10.1237219 C142.761491,16.4051174 138.668828,30.6758124 144.946646,42.0012956 L232.428138,199.822086 C238.700256,211.137287 253.155194,215.57062 264.701415,209.701246 L264.732062,209.685667 C264.813977,209.644027 264.895526,209.601979 264.976708,209.559529 C268.954293,207.709058 272.459244,204.722923 274.957567,200.72477 L332.095067,109.285656 C338.963256,98.2942565 335.62174,83.8256821 324.636491,76.9613366 C313.648827,70.0954818 299.179952,73.4397791 292.313961,84.4276625 L255.104951,143.974526 Z" id="Purple" fill="#9E4FA2"></path>
                <path d="M169.424991,200.998964 C175.432866,211.837457 189.084951,215.750196 199.920809,209.743781 L201.70825,208.752987 C212.539456,202.749151 216.459062,189.093063 210.452545,178.257019 L118.172087,11.7786656 C112.164212,0.940172472 98.5121273,-2.97256589 87.6762692,3.03384834 L85.8888283,4.02464302 C75.0576217,10.0284789 71.1380156,23.6845669 77.1445326,34.5206103 L169.424991,200.998964 L169.424991,200.998964 Z" id="Red" fill="#DF3713"></path>
                <path d="M105.604494,200.692734 C111.612368,211.531226 125.264639,215.444302 136.100498,209.437887 L137.887938,208.447093 C148.719145,202.443257 152.638668,188.787019 146.632048,177.95079 L78.3586946,54.7823995 C72.3508206,43.943908 58.6985489,40.0308324 47.8626908,46.0372467 L46.0752499,47.0280413 C35.2440433,53.0318772 31.3245205,66.6881155 37.3311402,77.5243443 L105.604494,200.692734 L105.604494,200.692734 Z" id="Orange" fill="#F09403"></path>
                <path d="M41.6157139,200.578843 C47.6260707,211.421814 61.2772032,215.332834 72.1130613,209.32642 L73.9005022,208.335626 C84.7317088,202.33179 88.65063,188.674466 82.6432683,177.836899 L44.3810178,108.809972 C38.3706609,97.9670009 24.7195285,94.0559807 13.8836704,100.062395 L12.0962295,101.05319 C1.26502292,107.057025 -2.65389833,120.714349 3.35346342,131.551916 L41.6157139,200.578843 L41.6157139,200.578843 Z" id="Yellow" fill="#E9D600"></path>
            </g>
        </g>
    </g>
</svg>