<?xml version="1.0" encoding="UTF-8" standalone="no"?>
<svg width="25px" height="21px" viewBox="0 0 25 21" version="1.1" xmlns="http://www.w3.org/2000/svg" xmlns:xlink="http://www.w3.org/1999/xlink" xmlns:sketch="http://www.bohemiancoding.com/sketch/ns">
    <!-- Generator: Sketch 3.5.2 (25235) - http://www.bohemiancoding.com/sketch -->
    <title>twitter_filled</title>
    <desc>Created with Sketch.</desc>
    <defs></defs>
    <g id="Page-1" stroke="none" stroke-width="1" fill="none" fill-rule="evenodd" sketch:type="MSPage">
        <g id="iPhone-6" sketch:type="MSArtboardGroup" transform="translate(-261.000000, -310.000000)" fill="#FFFFFF">
            <path d="M283.1055,313.221 C284.168,312.584 284.9845,311.5765 285.3675,310.377 C284.375,310.965 283.2715,311.3925 282.102,311.623 C281.1645,310.623 279.8285,310 278.35,310 C275.51,310 273.207,312.301 273.207,315.1405 C273.207,315.543 273.254,315.9355 273.342,316.3125 C269.0685,316.0975 265.2815,314.051 262.7445,310.9395 C262.301,311.7015 262.049,312.584 262.049,313.5255 C262.049,315.3085 262.9555,316.883 264.336,317.8065 C263.4925,317.7795 262.6995,317.547 262.006,317.162 L262.006,317.2265 C262.006,319.719 263.7795,321.795 266.129,322.2695 C265.6995,322.387 265.2445,322.4495 264.7755,322.4495 C264.4435,322.4495 264.1215,322.418 263.807,322.3555 C264.463,324.3965 266.3615,325.887 268.6095,325.928 C266.852,327.3065 264.635,328.127 262.225,328.127 C261.809,328.127 261.4005,328.1035 261,328.055 C263.2735,329.5155 265.977,330.3655 268.881,330.3655 C278.338,330.3655 283.51,322.5315 283.51,315.7385 C283.51,315.5155 283.504,315.291 283.4965,315.0725 C284.5,314.3475 285.3715,313.4415 286.0605,312.4105 C285.137,312.8205 284.1465,313.096 283.1055,313.221 Z" id="twitter_filled" sketch:type="MSShapeGroup"></path>
        </g>
    </g>
</svg>